<?xml version="1.0" standalone="no"?>
<!DOCTYPE svg PUBLIC "-//W3C//DTD SVG 20010904//EN"
 "http://www.w3.org/TR/2001/REC-SVG-20010904/DTD/svg10.dtd">
<svg version="1.0" xmlns="http://www.w3.org/2000/svg"
 width="512.000000pt" height="512.000000pt" viewBox="0 0 512.000000 512.000000"
 preserveAspectRatio="xMidYMid meet">
<metadata>
Created by potrace 1.14, written by Peter Selinger 2001-2017
</metadata>
<g transform="translate(0.000000,512.000000) scale(0.100000,-0.100000)"
fill="#000000" stroke="none">
<path d="M2370 5113 c-23 -8 -50 -46 -49 -68 0 -11 13 -47 29 -80 45 -89 40
-113 -23 -140 -38 -16 -71 -20 -237 -30 -47 -2 -105 -11 -130 -18 l-45 -14
-110 106 c-133 128 -177 150 -295 147 -133 -3 -109 17 -771 -645 -561 -560
-598 -599 -617 -653 -16 -43 -21 -75 -18 -130 5 -127 15 -141 313 -440 l266
-267 71 72 c88 89 173 147 216 147 33 0 80 -37 80 -64 0 -36 -23 -67 -78 -104
-192 -131 -316 -366 -328 -620 -3 -73 0 -99 12 -117 21 -33 74 -42 107 -20 29
18 34 36 42 145 9 112 40 215 89 298 l19 34 329 -329 329 -328 30 35 c48 55
97 134 141 223 22 45 48 90 56 100 39 44 137 -1 130 -61 -4 -43 -93 -212 -158
-304 -69 -96 -168 -199 -246 -254 -58 -42 -79 -80 -64 -118 10 -29 47 -56 74
-56 27 0 110 58 194 135 l73 68 127 -125 c157 -154 192 -173 312 -173 70 0 94
4 135 24 39 19 181 156 641 615 656 656 636 632 640 766 4 132 -10 155 -230
377 -104 106 -188 195 -185 197 2 2 33 7 69 10 302 28 502 153 526 329 5 37 2
48 -18 72 -46 53 -118 30 -138 -46 -15 -53 -53 -95 -119 -128 -47 -24 -104
-43 -126 -42 -2 0 -19 -4 -36 -9 -17 -5 -57 -12 -88 -15 -49 -5 -126 -16 -141
-20 -3 -1 -18 -5 -35 -10 -37 -10 -148 -68 -184 -96 -60 -46 -137 -129 -189
-202 -54 -78 -63 -86 -99 -91 -40 -7 -83 33 -83 76 0 86 221 328 369 403 l34
17 -394 395 -394 395 -79 -6 c-138 -9 -179 -47 -177 -163 1 -55 -3 -67 -24
-89 -33 -32 -78 -32 -112 2 -24 24 -25 29 -21 117 5 100 23 149 74 201 30 30
116 74 156 81 67 11 100 14 173 16 241 6 369 103 352 265 -6 57 -41 143 -73
181 -19 24 -67 37 -94 26z m-1295 -1363 c30 -11 48 -53 40 -91 -15 -67 -112
-77 -142 -15 -20 43 -11 81 25 100 33 18 43 19 77 6z m1125 -5 c59 -30 45
-126 -20 -140 -70 -15 -124 60 -85 118 24 38 60 45 105 22z m-144 -886 c37
-31 17 -123 -29 -134 -50 -11 -94 14 -102 59 -7 37 14 81 43 90 23 6 72 -2 88
-15z m779 -389 c51 -19 57 -104 8 -135 -80 -53 -162 56 -93 125 22 22 46 25
85 10z"/>
<path d="M585 4949 c-90 -18 -194 -76 -268 -150 -144 -144 -192 -350 -127
-545 22 -64 59 -129 73 -126 4 1 172 165 372 365 407 407 382 369 281 417 -95
45 -223 60 -331 39z"/>
<path d="M3128 1990 c-291 -291 -528 -533 -528 -537 0 -5 53 -61 118 -126 98
-98 124 -119 156 -124 l38 -6 505 506 506 505 -6 38 c-5 32 -26 58 -124 156
-65 65 -122 118 -128 117 -5 0 -247 -238 -537 -529z"/>
<path d="M3711 1773 l-123 -125 63 -65 c35 -36 108 -108 161 -160 105 -104
119 -132 93 -182 -18 -36 -54 -48 -94 -31 -15 6 -87 71 -159 143 -72 73 -142
143 -156 156 l-26 24 -124 -126 -125 -125 146 -169 c219 -254 335 -416 508
-708 112 -189 194 -275 318 -334 45 -22 107 -46 137 -54 55 -14 226 -16 285
-3 57 12 140 50 205 92 186 121 287 296 296 514 4 117 -13 195 -67 307 -60
125 -145 206 -334 318 -178 105 -323 201 -460 304 -55 41 -102 77 -105 80 -3
4 -34 31 -70 61 -36 30 -70 60 -76 65 -54 49 -149 131 -158 136 -6 4 -65 -48
-135 -118z m845 -908 c145 -43 208 -224 123 -353 -58 -89 -166 -129 -268 -101
-65 18 -143 97 -159 161 -25 99 -8 163 63 234 70 71 142 89 241 59z"/>
<path d="M4445 711 c-79 -34 -34 -168 49 -147 45 11 69 43 62 84 -3 20 -11 41
-18 49 -18 17 -68 25 -93 14z"/>
</g>
</svg>
